<svg width="318" height="126" viewBox="0 0 318 126" fill="none" xmlns="http://www.w3.org/2000/svg">
<rect width="318" height="126" rx="12" fill="white"/>
<path d="M47.5655 72.12L47.9155 70.72H51.0655C54.5188 70.72 57.4355 70.2533 59.8155 69.32C62.1955 68.34 64.1088 66.9867 65.5555 65.26C67.0021 63.5333 68.0521 61.55 68.7055 59.31C69.3588 57.0233 69.6855 54.5733 69.6855 51.96C69.6855 49.2067 68.9855 47.1767 67.5855 45.87C66.2321 44.5167 63.9688 43.84 60.7955 43.84C59.4421 43.84 58.3455 44.0267 57.5055 44.4C56.7121 44.7267 56.0588 45.3333 55.5455 46.22C55.0788 47.06 54.6355 48.2733 54.2155 49.86L44.9755 84.58C44.6021 86.0267 44.3921 87.1933 44.3455 88.08C44.2988 88.92 44.6021 89.55 45.2555 89.97C45.9555 90.3433 47.2388 90.5533 49.1055 90.6L48.8255 92C47.7521 91.9067 46.4455 91.86 44.9055 91.86C43.3655 91.8133 41.7788 91.79 40.1455 91.79C38.3255 91.79 36.5988 91.8133 34.9655 91.86C33.3321 91.86 32.0255 91.9067 31.0455 92L31.3255 90.6C32.9121 90.5067 34.1488 90.32 35.0355 90.04C35.9221 89.76 36.6221 89.2 37.1355 88.36C37.6488 87.52 38.1155 86.26 38.5355 84.58L47.7755 49.86C48.1955 48.3667 48.3821 47.2 48.3355 46.36C48.3355 45.4733 47.9855 44.8433 47.2855 44.47C46.5855 44.05 45.3721 43.84 43.6455 43.84L43.9955 42.44C44.9288 42.4867 46.2121 42.5333 47.8455 42.58C49.4788 42.6267 51.0655 42.65 52.6055 42.65C54.2855 42.65 55.9655 42.6267 57.6455 42.58C59.3721 42.5333 61.0988 42.51 62.8255 42.51C67.5388 42.51 71.0388 43.49 73.3255 45.45C75.6121 47.3633 76.7555 49.9067 76.7555 53.08C76.7555 56.72 75.6355 59.9867 73.3955 62.88C71.2021 65.7267 68.1221 67.99 64.1555 69.67C60.1888 71.3033 55.5921 72.12 50.3655 72.12H47.5655ZM83.1326 90.74C84.2526 90.74 85.5359 90.04 86.9826 88.64C88.4292 87.1933 89.8992 85.2567 91.3926 82.83C92.8859 80.4033 94.2626 77.65 95.5226 74.57C96.7826 71.49 97.7859 68.2933 98.5326 64.98L97.3426 72.54C95.5692 77.4867 93.7959 81.4767 92.0226 84.51C90.2492 87.4967 88.4526 89.6667 86.6326 91.02C84.8126 92.3267 82.9692 92.98 81.1026 92.98C78.9092 92.98 77.2526 92.1867 76.1326 90.6C75.0592 89.0133 74.5226 86.9833 74.5226 84.51C74.5226 82.27 74.8959 79.8433 75.6426 77.23C76.3892 74.57 77.4159 71.9333 78.7226 69.32C80.0759 66.7067 81.6159 64.3267 83.3426 62.18C85.0692 60.0333 86.9359 58.3067 88.9426 57C90.9959 55.6933 93.0726 55.04 95.1726 55.04C96.8059 55.04 98.0426 55.8567 98.8826 57.49C99.7692 59.0767 99.9559 61.3167 99.4426 64.21L98.6726 64.63C98.9992 62.1567 98.8359 60.1733 98.1826 58.68C97.5292 57.14 96.4559 56.37 94.9626 56.37C93.7492 56.37 92.4659 56.9767 91.1126 58.19C89.8059 59.3567 88.5226 60.9667 87.2626 63.02C86.0492 65.0267 84.9292 67.29 83.9026 69.81C82.9226 72.33 82.1292 74.9433 81.5226 77.65C80.9626 80.31 80.6826 82.8767 80.6826 85.35C80.6826 87.3567 80.8926 88.7567 81.3126 89.55C81.7792 90.3433 82.3859 90.74 83.1326 90.74ZM100.773 56.02C101.893 55.9733 103.013 55.88 104.133 55.74C105.253 55.6 106.279 55.3667 107.213 55.04L98.4626 85.98C98.3692 86.4 98.2292 86.96 98.0426 87.66C97.9026 88.3133 97.9026 88.92 98.0426 89.48C98.2292 90.04 98.7192 90.32 99.5126 90.32C100.446 90.32 101.356 89.8067 102.243 88.78C103.129 87.7533 104.016 85.8867 104.903 83.18L105.743 80.59H107.073L105.323 85.7C104.669 87.5667 103.876 89.0367 102.943 90.11C102.056 91.1367 101.123 91.86 100.143 92.28C99.1626 92.7467 98.2059 92.98 97.2726 92.98C95.4526 92.98 94.1692 92.3733 93.4226 91.16C92.8159 90.0867 92.6526 88.85 92.9326 87.45C93.2126 86.0033 93.5392 84.5567 93.9126 83.11L100.773 56.02ZM119.073 92H112.983L121.383 61.97C121.57 61.41 121.71 60.8033 121.803 60.15C121.943 59.45 121.92 58.8667 121.733 58.4C121.547 57.8867 121.08 57.63 120.333 57.63C119.307 57.63 118.397 58.1433 117.603 59.17C116.81 60.15 115.923 62.0167 114.943 64.77L114.033 67.36H112.703L114.453 62.25C115.48 59.31 116.74 57.3733 118.233 56.44C119.773 55.5067 121.29 55.04 122.783 55.04C124.183 55.04 125.187 55.3433 125.793 55.95C126.447 56.5567 126.797 57.35 126.843 58.33C126.937 59.2633 126.867 60.3133 126.633 61.48C126.447 62.6 126.213 63.72 125.933 64.84L119.073 92ZM122.293 77.44C123.927 73.24 125.513 69.7167 127.053 66.87C128.593 64.0233 130.11 61.7367 131.603 60.01C133.097 58.2367 134.613 56.9767 136.153 56.23C137.74 55.4367 139.373 55.04 141.053 55.04C143.247 55.04 144.74 55.5767 145.533 56.65C146.373 57.6767 146.747 59.0067 146.653 60.64C146.56 62.2267 146.233 63.8833 145.673 65.61L138.883 86.05C138.463 87.31 138.277 88.36 138.323 89.2C138.417 89.9933 138.977 90.39 140.003 90.39C140.89 90.39 141.753 89.9 142.593 88.92C143.48 87.94 144.413 86.05 145.393 83.25L146.303 80.66H147.633L145.883 85.77C145.23 87.73 144.413 89.2233 143.433 90.25C142.5 91.2767 141.497 91.9767 140.423 92.35C139.397 92.77 138.393 92.98 137.413 92.98C136.293 92.98 135.36 92.7933 134.613 92.42C133.913 92.0467 133.377 91.5567 133.003 90.95C132.49 90.11 132.327 89.0133 132.513 87.66C132.7 86.3067 133.073 84.8133 133.633 83.18L140.283 63.16C140.517 62.5067 140.703 61.7367 140.843 60.85C141.03 59.9167 141.007 59.1 140.773 58.4C140.54 57.6533 139.863 57.28 138.743 57.28C137.623 57.28 136.433 57.77 135.173 58.75C133.913 59.73 132.607 61.13 131.253 62.95C129.9 64.7233 128.57 66.87 127.263 69.39C125.957 71.8633 124.697 74.6167 123.483 77.65C122.317 80.6367 121.243 83.8333 120.263 87.24L122.293 77.44ZM160.379 90.74C161.499 90.74 162.782 90.04 164.229 88.64C165.675 87.1933 167.145 85.2567 168.639 82.83C170.132 80.4033 171.509 77.65 172.769 74.57C174.029 71.49 175.032 68.2933 175.779 64.98L174.589 72.54C172.815 77.4867 171.042 81.4767 169.269 84.51C167.495 87.4967 165.699 89.6667 163.879 91.02C162.059 92.3267 160.215 92.98 158.349 92.98C156.155 92.98 154.499 92.1867 153.379 90.6C152.305 89.0133 151.769 86.9833 151.769 84.51C151.769 82.27 152.142 79.8433 152.889 77.23C153.635 74.57 154.662 71.9333 155.969 69.32C157.322 66.7067 158.862 64.3267 160.589 62.18C162.315 60.0333 164.182 58.3067 166.189 57C168.242 55.6933 170.319 55.04 172.419 55.04C174.052 55.04 175.289 55.8567 176.129 57.49C177.015 59.0767 177.202 61.3167 176.689 64.21L175.919 64.63C176.245 62.1567 176.082 60.1733 175.429 58.68C174.775 57.14 173.702 56.37 172.209 56.37C170.995 56.37 169.712 56.9767 168.359 58.19C167.052 59.3567 165.769 60.9667 164.509 63.02C163.295 65.0267 162.175 67.29 161.149 69.81C160.169 72.33 159.375 74.9433 158.769 77.65C158.209 80.31 157.929 82.8767 157.929 85.35C157.929 87.3567 158.139 88.7567 158.559 89.55C159.025 90.3433 159.632 90.74 160.379 90.74ZM178.019 56.02C179.139 55.9733 180.259 55.88 181.379 55.74C182.499 55.6 183.525 55.3667 184.459 55.04L175.709 85.98C175.615 86.4 175.475 86.96 175.289 87.66C175.149 88.3133 175.149 88.92 175.289 89.48C175.475 90.04 175.965 90.32 176.759 90.32C177.692 90.32 178.602 89.8067 179.489 88.78C180.375 87.7533 181.262 85.8867 182.149 83.18L182.989 80.59H184.319L182.569 85.7C181.915 87.5667 181.122 89.0367 180.189 90.11C179.302 91.1367 178.369 91.86 177.389 92.28C176.409 92.7467 175.452 92.98 174.519 92.98C172.699 92.98 171.415 92.3733 170.669 91.16C170.062 90.0867 169.899 88.85 170.179 87.45C170.459 86.0033 170.785 84.5567 171.159 83.11L178.019 56.02ZM210.389 56.44C208.616 56.44 206.843 57.1633 205.069 58.61C203.343 60.0567 201.756 62.04 200.309 64.56C198.863 67.08 197.696 69.95 196.809 73.17C195.969 76.39 195.549 79.7733 195.549 83.32C195.549 85.7 195.993 87.4267 196.879 88.5C197.813 89.5267 199.003 90.04 200.449 90.04C202.129 90.04 203.856 89.5267 205.629 88.5C207.403 87.4733 209.176 85.6533 210.949 83.04L212.349 83.6C211.463 85.14 210.296 86.6333 208.849 88.08C207.403 89.5267 205.769 90.7167 203.949 91.65C202.176 92.5367 200.286 92.98 198.279 92.98C195.479 92.98 193.239 92.1167 191.559 90.39C189.879 88.6633 189.039 86.0967 189.039 82.69C189.039 80.5433 189.343 78.2333 189.949 75.76C190.603 73.24 191.513 70.7667 192.679 68.34C193.893 65.8667 195.363 63.65 197.089 61.69C198.816 59.6833 200.776 58.0733 202.969 56.86C205.163 55.6467 207.566 55.04 210.179 55.04C212.233 55.04 214.006 55.5767 215.499 56.65C216.993 57.6767 217.739 59.1233 217.739 60.99C217.739 61.8767 217.529 62.7633 217.109 63.65C216.736 64.49 216.176 65.19 215.429 65.75C214.683 66.31 213.796 66.59 212.769 66.59C211.789 66.59 211.066 66.3333 210.599 65.82C210.133 65.26 209.899 64.6067 209.899 63.86C209.899 62.5067 210.436 61.3633 211.509 60.43C212.583 59.45 213.796 58.8433 215.149 58.61C214.683 57.9567 214.076 57.4433 213.329 57.07C212.583 56.65 211.603 56.44 210.389 56.44ZM223.874 76.11C226.487 75.2233 228.844 74.36 230.944 73.52C233.091 72.6333 234.794 71.7 236.054 70.72C237.734 69.3667 239.064 67.7333 240.044 65.82C241.024 63.9067 241.514 61.8067 241.514 59.52C241.514 58.1667 241.421 57.3033 241.234 56.93C241.047 56.5567 240.767 56.37 240.394 56.37C239.227 56.37 237.967 56.8833 236.614 57.91C235.261 58.9367 233.931 60.36 232.624 62.18C231.317 63.9533 230.104 65.9833 228.984 68.27C227.911 70.5567 227.047 73.0067 226.394 75.62C225.741 78.1867 225.414 80.7533 225.414 83.32C225.414 85.7 225.857 87.4267 226.744 88.5C227.631 89.5267 228.797 90.04 230.244 90.04C231.924 90.04 233.697 89.5267 235.564 88.5C237.431 87.4733 239.251 85.6533 241.024 83.04L242.144 83.6C241.257 85.14 240.091 86.6333 238.644 88.08C237.197 89.5267 235.564 90.7167 233.744 91.65C231.971 92.5367 230.081 92.98 228.074 92.98C226.207 92.98 224.574 92.6067 223.174 91.86C221.774 91.1133 220.701 90.0167 219.954 88.57C219.207 87.0767 218.834 85.2567 218.834 83.11C218.834 81.1033 219.207 78.8633 219.954 76.39C220.701 73.87 221.751 71.3733 223.104 68.9C224.504 66.38 226.161 64.07 228.074 61.97C229.987 59.87 232.111 58.19 234.444 56.93C236.777 55.67 239.274 55.04 241.934 55.04C243.381 55.04 244.594 55.4367 245.574 56.23C246.601 56.9767 247.114 58.12 247.114 59.66C247.114 61.5267 246.554 63.2767 245.434 64.91C244.361 66.4967 242.914 67.9667 241.094 69.32C239.321 70.6267 237.384 71.7933 235.284 72.82C233.184 73.8467 231.131 74.7333 229.124 75.48C227.117 76.2267 225.344 76.8333 223.804 77.3L223.874 76.11ZM257.244 90.74C258.364 90.74 259.647 90.04 261.094 88.64C262.541 87.1933 264.011 85.2567 265.504 82.83C266.997 80.4033 268.374 77.65 269.634 74.57C270.894 71.49 271.897 68.2933 272.644 64.98L271.454 72.54C269.681 77.4867 267.907 81.4767 266.134 84.51C264.361 87.4967 262.564 89.6667 260.744 91.02C258.924 92.3267 257.081 92.98 255.214 92.98C253.021 92.98 251.364 92.1867 250.244 90.6C249.171 89.0133 248.634 86.9833 248.634 84.51C248.634 82.27 249.007 79.8433 249.754 77.23C250.501 74.57 251.527 71.9333 252.834 69.32C254.187 66.7067 255.727 64.3267 257.454 62.18C259.181 60.0333 261.047 58.3067 263.054 57C265.107 55.6933 267.184 55.04 269.284 55.04C270.917 55.04 272.154 55.8567 272.994 57.49C273.881 59.0767 274.067 61.3167 273.554 64.21L272.784 64.63C273.111 62.1567 272.947 60.1733 272.294 58.68C271.641 57.14 270.567 56.37 269.074 56.37C267.861 56.37 266.577 56.9767 265.224 58.19C263.917 59.3567 262.634 60.9667 261.374 63.02C260.161 65.0267 259.041 67.29 258.014 69.81C257.034 72.33 256.241 74.9433 255.634 77.65C255.074 80.31 254.794 82.8767 254.794 85.35C254.794 87.3567 255.004 88.7567 255.424 89.55C255.891 90.3433 256.497 90.74 257.244 90.74ZM274.884 56.02C276.004 55.9733 277.124 55.88 278.244 55.74C279.364 55.6 280.391 55.3667 281.324 55.04L272.574 85.98C272.481 86.4 272.341 86.96 272.154 87.66C272.014 88.3133 272.014 88.92 272.154 89.48C272.341 90.04 272.831 90.32 273.624 90.32C274.557 90.32 275.467 89.8067 276.354 88.78C277.241 87.7533 278.127 85.8867 279.014 83.18L279.854 80.59H281.184L279.434 85.7C278.781 87.5667 277.987 89.0367 277.054 90.11C276.167 91.1367 275.234 91.86 274.254 92.28C273.274 92.7467 272.317 92.98 271.384 92.98C269.564 92.98 268.281 92.3733 267.534 91.16C266.927 90.0867 266.764 88.85 267.044 87.45C267.324 86.0033 267.651 84.5567 268.024 83.11L274.884 56.02Z" fill="#1B1717"/>
</svg>
