<svg width="318" height="126" viewBox="0 0 318 126" fill="none" xmlns="http://www.w3.org/2000/svg">
<rect width="318" height="126" rx="12" fill="white"/>
<path d="M42.6865 60.0918H38.4824V58.0068H42.6865V47.7871H47.2324V58.0068H53.8975V60.0918H47.2324V72.499C47.2324 74.0713 47.2552 75.5638 47.3008 76.9766C47.3464 78.3665 47.4603 79.6426 47.6426 80.8047C47.8932 82.1719 48.2806 83.2656 48.8047 84.0859C49.3516 84.9062 50.1377 85.3164 51.1631 85.3164C51.9606 85.3164 52.5872 85.0999 53.043 84.667C53.4987 84.2113 53.8519 83.6302 54.1025 82.9238C54.376 82.2174 54.5469 81.4541 54.6152 80.6338C54.6836 79.8135 54.7178 79.0615 54.7178 78.3779V75.3701H56.9736V78.3096C56.9736 79.6084 56.8597 80.8161 56.6318 81.9326C56.4268 83.0492 56.0622 84.0062 55.5381 84.8037C55.0368 85.6012 54.376 86.2279 53.5557 86.6836C52.7581 87.1621 51.7441 87.4014 50.5137 87.4014C49.1693 87.4014 47.9616 87.1279 46.8906 86.5811C45.8197 86.057 44.9538 85.1911 44.293 83.9834C43.6322 82.7985 43.1992 81.363 42.9941 79.6768C42.7891 77.9678 42.6865 75.5752 42.6865 72.499V60.0918ZM71.8418 49.9404C73.3913 47.4795 74.5078 45.1211 75.1914 42.8652C75.8978 40.5866 76.251 38.3763 76.251 36.2344C76.251 34.2747 75.932 32.6569 75.2939 31.3809C74.6787 30.082 73.6989 29.4326 72.3545 29.4326C71.0785 29.4326 70.0303 29.9339 69.21 30.9365C68.4124 31.9391 67.7858 33.2493 67.3301 34.8672C66.8971 36.485 66.5667 38.3079 66.3389 40.3359C66.1338 42.3639 65.9857 44.4261 65.8945 46.5225C65.8945 47.0238 65.8831 47.5934 65.8604 48.2314C65.8376 48.8695 65.8148 49.61 65.792 50.4531C65.7692 51.2734 65.7578 52.2646 65.7578 53.4268C65.7578 54.5661 65.7578 55.8991 65.7578 57.4258C67.0111 56.2181 68.139 54.9762 69.1416 53.7002C70.1442 52.4242 71.0443 51.1709 71.8418 49.9404ZM82.1982 72.499C82.1982 74.0713 82.221 75.5752 82.2666 77.0107C82.3122 78.4235 82.4375 79.7109 82.6426 80.873C82.8704 82.2858 83.2692 83.3796 83.8389 84.1543C84.4313 84.929 85.1947 85.3164 86.1289 85.3164C86.9264 85.3164 87.5531 85.0999 88.0088 84.667C88.4873 84.2113 88.8519 83.6302 89.1025 82.9238C89.3532 82.2174 89.5127 81.4541 89.5811 80.6338C89.6494 79.8135 89.6836 79.0615 89.6836 78.3779V75.3701H91.9395V78.2412C91.9395 79.54 91.8369 80.7477 91.6318 81.8643C91.4268 82.9808 91.0736 83.9492 90.5723 84.7695C90.0938 85.5898 89.4443 86.2279 88.624 86.6836C87.8037 87.1621 86.7669 87.4014 85.5137 87.4014C84.1921 87.4014 82.9844 87.1279 81.8906 86.5811C80.7969 86.057 79.9196 85.1911 79.2588 83.9834C78.6208 82.7985 78.1878 81.363 77.96 79.6768C77.7549 77.9678 77.6523 75.5752 77.6523 72.499V66.1074C77.6523 65.1276 77.5726 64.2048 77.4131 63.3389C77.2536 62.4502 76.9688 61.6755 76.5586 61.0146C76.1712 60.3538 75.6357 59.8411 74.9521 59.4766C74.2913 59.0892 73.4255 58.8955 72.3545 58.8955C71.2152 58.8955 70.2126 59.2601 69.3467 59.9893C68.5036 60.7184 67.82 61.6185 67.2959 62.6895C66.9769 63.4414 66.7035 64.2731 66.4756 65.1846C66.2705 66.096 66.1224 67.0189 66.0312 67.9531C65.9401 68.8874 65.8717 69.7988 65.8262 70.6875C65.7806 71.5534 65.7578 72.3395 65.7578 73.0459C65.7578 74.4131 65.7578 75.5752 65.7578 76.5322C65.7578 77.4665 65.7806 78.4007 65.8262 79.335C65.8717 80.2692 65.9287 81.2604 65.9971 82.3086C66.0654 83.334 66.1452 84.5645 66.2363 86H61.6904C61.4626 83.015 61.3258 80.2692 61.2803 77.7627C61.2347 75.2334 61.2119 73.0117 61.2119 71.0977V63.749C60.7334 64.2503 60.2435 64.6833 59.7422 65.0479C59.2637 65.3896 58.8193 65.6745 58.4092 65.9023C57.8851 66.1986 57.418 66.4606 57.0078 66.6885V64.5693C57.8053 64.2048 58.5915 63.7376 59.3662 63.168C60.1637 62.5755 60.779 62.04 61.2119 61.5615C61.2119 60.0348 61.2119 58.736 61.2119 57.665C61.2119 56.5713 61.2233 55.5687 61.2461 54.6572C61.2689 53.723 61.2917 52.7773 61.3145 51.8203C61.3372 50.8633 61.3714 49.7012 61.417 48.334C61.5081 45.873 61.7246 43.3438 62.0664 40.7461C62.431 38.1484 63.0576 35.8014 63.9463 33.7051C64.6299 31.9733 65.6439 30.458 66.9883 29.1592C68.3555 27.8604 70.0189 27.2109 71.9785 27.2109C74.0749 27.2109 75.6813 28.0085 76.7979 29.6035C77.9372 31.1758 78.5068 33.2949 78.5068 35.9609C78.5068 38.194 78.1536 40.4043 77.4473 42.5918C76.7409 44.7793 75.7952 46.8984 74.6104 48.9492C73.4255 50.9772 72.0583 52.9027 70.5088 54.7256C68.9821 56.5257 67.3984 58.1777 65.7578 59.6816V61.1514H66.4414C67.1934 59.9437 68.196 58.9183 69.4492 58.0752C70.7253 57.2321 72.2292 56.8105 73.9609 56.8105C76.6953 56.8105 78.7461 57.6309 80.1133 59.2715C81.5033 60.8893 82.1982 63.168 82.1982 66.1074V72.499ZM93.3408 71.9863C93.3408 69.8444 93.5801 67.8278 94.0586 65.9365C94.5599 64.0452 95.2891 62.416 96.2461 61.0488C97.2031 59.6589 98.388 58.5765 99.8008 57.8018C101.236 57.0042 102.888 56.6055 104.757 56.6055C107.56 56.6055 109.781 57.4486 111.422 59.1348C113.085 60.7982 113.917 62.9401 113.917 65.5605C113.917 67.3379 113.598 68.9215 112.96 70.3115C112.345 71.6787 111.456 72.8294 110.294 73.7637C109.132 74.6979 107.753 75.4043 106.158 75.8828C104.563 76.3385 102.809 76.5664 100.895 76.5664H98.0918C98.2513 77.5918 98.4678 78.6172 98.7412 79.6426C99.0146 80.668 99.402 81.6022 99.9033 82.4453C100.427 83.2656 101.111 83.9492 101.954 84.4961C102.797 85.043 103.845 85.3164 105.099 85.3164C106.557 85.3164 107.742 85.0088 108.653 84.3936C109.565 83.7783 110.283 82.9922 110.807 82.0352C111.354 81.0781 111.729 80.0072 111.935 78.8223C112.14 77.6374 112.242 76.4867 112.242 75.3701H114.498C114.498 76.9424 114.316 78.4577 113.951 79.916C113.609 81.3516 113.051 82.639 112.276 83.7783C111.502 84.8949 110.499 85.7721 109.269 86.4102C108.038 87.071 106.534 87.4014 104.757 87.4014C101.065 87.4014 98.2399 86.1367 96.2803 83.6074C94.3206 81.0553 93.3408 77.1816 93.3408 71.9863ZM97.8867 74.4473H100.484C103.059 74.4473 105.178 73.7295 106.842 72.2939C108.528 70.8356 109.371 68.7051 109.371 65.9023C109.371 65.0592 109.303 64.2161 109.166 63.373C109.029 62.5072 108.779 61.721 108.414 61.0146C108.072 60.3083 107.582 59.75 106.944 59.3398C106.329 58.9069 105.509 58.6904 104.483 58.6904C103.071 58.6904 101.931 59.112 101.065 59.9551C100.222 60.7982 99.5615 61.8691 99.083 63.168C98.6273 64.444 98.3083 65.8796 98.126 67.4746C97.9665 69.0469 97.8867 70.5508 97.8867 71.9863V74.4473ZM125.367 60.9463H126.051C126.985 59.5791 128.056 58.5195 129.264 57.7676C130.494 56.9928 131.85 56.6055 133.331 56.6055C134.881 56.6055 136.225 57.0384 137.364 57.9043C138.504 58.7702 139.073 60.1374 139.073 62.0059C139.073 63.3503 138.686 64.4668 137.911 65.3555C137.159 66.2441 136.1 66.6885 134.732 66.6885C133.342 66.6885 132.294 66.2555 131.588 65.3896C130.904 64.5238 130.562 63.3161 130.562 61.7666H132.784C132.784 62.473 132.921 63.1224 133.194 63.7148C133.491 64.2845 134.026 64.5693 134.801 64.5693C135.37 64.5693 135.849 64.3757 136.236 63.9883C136.646 63.5781 136.852 62.9401 136.852 62.0742C136.852 60.9349 136.476 60.0918 135.724 59.5449C134.972 58.9753 134.015 58.6904 132.853 58.6904C131.326 58.6904 130.038 59.112 128.99 59.9551C127.965 60.7982 127.156 61.8919 126.563 63.2363C126.29 63.8971 126.062 64.6833 125.88 65.5947C125.72 66.5062 125.606 67.4062 125.538 68.2949C125.47 69.1836 125.424 70.0039 125.401 70.7559C125.379 71.485 125.367 72.0661 125.367 72.499C125.367 73.8434 125.367 75.0169 125.367 76.0195C125.367 77.0221 125.39 78.0133 125.436 78.9932C125.481 79.973 125.538 81.0098 125.606 82.1035C125.675 83.1973 125.755 84.4961 125.846 86H121.3C121.118 83.8125 120.992 81.6478 120.924 79.5059C120.855 77.3411 120.821 75.0283 120.821 72.5674V63.3047H120.104C119.967 64.1022 119.579 64.8656 118.941 65.5947C118.326 66.3239 117.551 66.6885 116.617 66.6885V64.5693C117.324 64.387 117.927 64.0339 118.429 63.5098C118.953 62.9629 119.386 62.3704 119.728 61.7324C120.069 61.0716 120.331 60.4108 120.514 59.75C120.719 59.0892 120.821 58.5081 120.821 58.0068H125.367V60.9463ZM146.217 46.4541C147.105 46.4541 147.88 46.7845 148.541 47.4453C149.202 48.0833 149.532 48.8467 149.532 49.7354C149.532 50.624 149.202 51.3874 148.541 52.0254C147.88 52.6406 147.105 52.9482 146.217 52.9482C145.351 52.9482 144.599 52.6406 143.961 52.0254C143.323 51.3874 143.004 50.624 143.004 49.7354C143.004 48.8467 143.323 48.0833 143.961 47.4453C144.599 46.7845 145.351 46.4541 146.217 46.4541ZM143.995 63.3047H143.277C143.141 64.1022 142.753 64.8656 142.115 65.5947C141.5 66.3239 140.725 66.6885 139.791 66.6885V64.5693C140.497 64.387 141.101 64.0339 141.603 63.5098C142.127 62.9629 142.56 62.3704 142.901 61.7324C143.243 61.0716 143.505 60.4108 143.688 59.75C143.893 59.0892 143.995 58.5081 143.995 58.0068H148.541V72.499C148.541 74.0713 148.564 75.5752 148.609 77.0107C148.655 78.4235 148.769 79.7109 148.951 80.873C149.202 82.2858 149.612 83.3796 150.182 84.1543C150.774 84.929 151.537 85.3164 152.472 85.3164C153.269 85.3164 153.896 85.0999 154.352 84.667C154.807 84.2113 155.16 83.6302 155.411 82.9238C155.685 82.2174 155.855 81.4541 155.924 80.6338C155.992 79.8135 156.026 79.0615 156.026 78.3779V75.3701H158.282V78.2412C158.282 79.54 158.168 80.7477 157.94 81.8643C157.735 82.9808 157.382 83.9492 156.881 84.7695C156.402 85.5898 155.753 86.2279 154.933 86.6836C154.135 87.1621 153.098 87.4014 151.822 87.4014C150.523 87.4014 149.327 87.1279 148.233 86.5811C147.14 86.057 146.262 85.1911 145.602 83.9834C144.941 82.7985 144.508 81.363 144.303 79.6768C144.098 77.9678 143.995 75.5752 143.995 72.499V63.3047ZM171.271 56.6055C174.825 56.6055 177.582 57.9499 179.542 60.6387C181.502 63.3047 182.481 67.6797 182.481 73.7637C182.481 75.2448 182.504 76.6803 182.55 78.0703C182.595 79.4375 182.732 80.6566 182.96 81.7275C183.188 82.7985 183.575 83.6644 184.122 84.3252C184.692 84.986 185.466 85.3164 186.446 85.3164C187.244 85.3164 187.87 85.0771 188.326 84.5986C188.805 84.0973 189.158 83.4935 189.386 82.7871C189.636 82.0807 189.796 81.3288 189.864 80.5312C189.933 79.7337 189.967 79.016 189.967 78.3779V75.3701H192.188V78.3096C192.188 79.6084 192.097 80.8161 191.915 81.9326C191.733 83.0492 191.391 84.0062 190.89 84.8037C190.411 85.6012 189.75 86.2279 188.907 86.6836C188.064 87.1621 186.993 87.4014 185.694 87.4014C183.735 87.4014 182.151 86.8545 180.943 85.7607C179.758 84.667 178.984 83.1403 178.619 81.1807H177.901C177.491 82.7985 176.66 84.2454 175.406 85.5215C174.176 86.7747 172.512 87.4014 170.416 87.4014C168.548 87.4014 166.964 86.9912 165.665 86.1709C164.366 85.3506 163.295 84.2454 162.452 82.8555C161.609 81.4427 160.994 79.8249 160.606 78.002C160.242 76.1562 160.06 74.1738 160.06 72.0547C160.06 67.11 161.051 63.3047 163.033 60.6387C165.016 57.9499 167.761 56.6055 171.271 56.6055ZM171.271 58.6904C166.827 58.6904 164.605 63.0996 164.605 71.918C164.605 76.3158 165.152 79.654 166.246 81.9326C167.363 84.1885 169.037 85.3164 171.271 85.3164C173.458 85.3164 175.11 84.1999 176.227 81.9668C177.343 79.7109 177.901 76.4069 177.901 72.0547C177.901 67.6797 177.343 64.3643 176.227 62.1084C175.11 59.8298 173.458 58.6904 171.271 58.6904ZM193.624 71.918C193.624 69.776 193.886 67.7594 194.41 65.8682C194.957 63.9769 195.743 62.359 196.769 61.0146C197.794 59.6475 199.036 58.5765 200.494 57.8018C201.975 57.0042 203.65 56.6055 205.519 56.6055C206.407 56.6055 207.285 56.708 208.15 56.9131C209.016 57.1182 209.768 57.46 210.406 57.9385C211.067 58.3942 211.591 58.9639 211.979 59.6475C212.389 60.3311 212.594 61.1628 212.594 62.1426C212.594 63.3503 212.218 64.4098 211.466 65.3213C210.737 66.2327 209.666 66.6885 208.253 66.6885C206.772 66.6885 205.701 66.2327 205.04 65.3213C204.379 64.4098 204.049 63.2249 204.049 61.7666H206.305C206.305 62.473 206.441 63.1224 206.715 63.7148C206.988 64.2845 207.524 64.5693 208.321 64.5693C208.891 64.5693 209.369 64.3984 209.757 64.0566C210.167 63.7148 210.372 63.0996 210.372 62.2109C210.372 61.026 209.905 60.1488 208.971 59.5791C208.036 58.9867 206.886 58.6904 205.519 58.6904C203.194 58.6904 201.383 59.8184 200.084 62.0742C198.808 64.3073 198.17 67.6113 198.17 71.9863C198.17 73.3991 198.25 74.8802 198.409 76.4297C198.591 77.9564 198.933 79.3919 199.435 80.7363C199.959 82.0579 200.688 83.1517 201.622 84.0176C202.556 84.8835 203.81 85.3164 205.382 85.3164C206.749 85.3164 207.866 84.9974 208.731 84.3594C209.62 83.7214 210.326 82.9124 210.851 81.9326C211.375 80.9528 211.739 79.8818 211.944 78.7197C212.149 77.5576 212.252 76.4411 212.252 75.3701H214.508C214.508 76.5322 214.36 77.8197 214.063 79.2324C213.79 80.6224 213.3 81.9212 212.594 83.1289C211.887 84.3366 210.919 85.3506 209.688 86.1709C208.458 86.9912 206.909 87.4014 205.04 87.4014C203.035 87.4014 201.303 87.0254 199.845 86.2734C198.409 85.5215 197.236 84.4733 196.324 83.1289C195.413 81.7845 194.729 80.1667 194.273 78.2754C193.84 76.3841 193.624 74.265 193.624 71.918ZM217.857 83.7441C217.857 82.7188 218.211 81.8643 218.917 81.1807C219.623 80.4743 220.489 80.1211 221.515 80.1211C222.54 80.1211 223.395 80.4743 224.078 81.1807C224.785 81.8643 225.138 82.7188 225.138 83.7441C225.138 84.7923 224.785 85.6582 224.078 86.3418C223.395 87.0482 222.54 87.4014 221.515 87.4014C220.489 87.4014 219.623 87.0482 218.917 86.3418C218.211 85.6582 217.857 84.7923 217.857 83.7441ZM241.476 56.6055C245.03 56.6055 247.787 57.9499 249.747 60.6387C251.707 63.3047 252.687 67.6797 252.687 73.7637C252.687 75.2448 252.709 76.6803 252.755 78.0703C252.8 79.4375 252.937 80.6566 253.165 81.7275C253.393 82.7985 253.78 83.6644 254.327 84.3252C254.897 84.986 255.672 85.3164 256.651 85.3164C257.449 85.3164 258.076 85.0771 258.531 84.5986C259.01 84.0973 259.363 83.4935 259.591 82.7871C259.841 82.0807 260.001 81.3288 260.069 80.5312C260.138 79.7337 260.172 79.016 260.172 78.3779V75.3701H262.394V78.3096C262.394 79.6084 262.302 80.8161 262.12 81.9326C261.938 83.0492 261.596 84.0062 261.095 84.8037C260.616 85.6012 259.955 86.2279 259.112 86.6836C258.269 87.1621 257.198 87.4014 255.899 87.4014C253.94 87.4014 252.356 86.8545 251.148 85.7607C249.964 84.667 249.189 83.1403 248.824 81.1807H248.106C247.696 82.7985 246.865 84.2454 245.611 85.5215C244.381 86.7747 242.717 87.4014 240.621 87.4014C238.753 87.4014 237.169 86.9912 235.87 86.1709C234.571 85.3506 233.5 84.2454 232.657 82.8555C231.814 81.4427 231.199 79.8249 230.812 78.002C230.447 76.1562 230.265 74.1738 230.265 72.0547C230.265 67.11 231.256 63.3047 233.238 60.6387C235.221 57.9499 237.966 56.6055 241.476 56.6055ZM241.476 58.6904C237.032 58.6904 234.811 63.0996 234.811 71.918C234.811 76.3158 235.357 79.654 236.451 81.9326C237.568 84.1885 239.243 85.3164 241.476 85.3164C243.663 85.3164 245.315 84.1999 246.432 81.9668C247.548 79.7109 248.106 76.4069 248.106 72.0547C248.106 67.6797 247.548 64.3643 246.432 62.1084C245.315 59.8298 243.663 58.6904 241.476 58.6904ZM267.418 46.4541C268.307 46.4541 269.081 46.7845 269.742 47.4453C270.403 48.0833 270.733 48.8467 270.733 49.7354C270.733 50.624 270.403 51.3874 269.742 52.0254C269.081 52.6406 268.307 52.9482 267.418 52.9482C266.552 52.9482 265.8 52.6406 265.162 52.0254C264.524 51.3874 264.205 50.624 264.205 49.7354C264.205 48.8467 264.524 48.0833 265.162 47.4453C265.8 46.7845 266.552 46.4541 267.418 46.4541ZM265.196 63.3047H264.479C264.342 64.1022 263.954 64.8656 263.316 65.5947C262.701 66.3239 261.926 66.6885 260.992 66.6885V64.5693C261.699 64.387 262.302 64.0339 262.804 63.5098C263.328 62.9629 263.761 62.3704 264.103 61.7324C264.444 61.0716 264.706 60.4108 264.889 59.75C265.094 59.0892 265.196 58.5081 265.196 58.0068H269.742V72.499C269.742 74.0713 269.765 75.5752 269.811 77.0107C269.856 78.4235 269.97 79.7109 270.152 80.873C270.403 82.2858 270.813 83.3796 271.383 84.1543C271.975 84.929 272.739 85.3164 273.673 85.3164C274.47 85.3164 275.097 85.0999 275.553 84.667C276.008 84.2113 276.362 83.6302 276.612 82.9238C276.886 82.2174 277.057 81.4541 277.125 80.6338C277.193 79.8135 277.228 79.0615 277.228 78.3779V75.3701H279.483V78.2412C279.483 79.54 279.369 80.7477 279.142 81.8643C278.937 82.9808 278.583 83.9492 278.082 84.7695C277.604 85.5898 276.954 86.2279 276.134 86.6836C275.336 87.1621 274.299 87.4014 273.023 87.4014C271.725 87.4014 270.528 87.1279 269.435 86.5811C268.341 86.057 267.464 85.1911 266.803 83.9834C266.142 82.7985 265.709 81.363 265.504 79.6768C265.299 77.9678 265.196 75.5752 265.196 72.499V63.3047Z" fill="#1B1717"/>
</svg>
